HIERARCHY
ROOT Hips
{
  OFFSET 49.0777 96.8504 16.9918
  CHANNELS 6 Xposition Yposition Zposition Zrotation Xrotation Yrotation
  JOINT spine
  {
    OFFSET 0 7.96568 0.458067
    CHANNELS 3 Zrotation Xrotation Yrotation
    JOINT spine1
    {
      OFFSET 0 10.2431 0
      CHANNELS 3 Zrotation Xrotation Yrotation
      JOINT spine2
      {
        OFFSET 0 9.81475 0
        CHANNELS 3 Zrotation Xrotation Yrotation
        JOINT Neck
        {
          OFFSET 0 25.1986 1.20138
          CHANNELS 3 Zrotation Xrotation Yrotation
          JOINT Head
          {
            OFFSET 0 7.61315 0
            CHANNELS 3 Zrotation Xrotation Yrotation
            End Site
            {
              OFFSET 0 18.4281 -6.07733
            }
          }
        }
        JOINT RightShoulder
        {
          OFFSET -4.1327 10.5992 -0.575451
          CHANNELS 3 Zrotation Xrotation Yrotation
          JOINT RightArm
          {
            OFFSET 0 13.9018 0
            CHANNELS 3 Zrotation Xrotation Yrotation
            JOINT RightArmRoll
            {
              OFFSET 0 7.01789 0
              CHANNELS 3 Zrotation Xrotation Yrotation
              JOINT RightForeArm
              {
                OFFSET 0 20.4406 0
                CHANNELS 3 Zrotation Xrotation Yrotation
                JOINT RightForeArmRoll
                {
                  OFFSET 0 7.87516 0
                  CHANNELS 3 Zrotation Xrotation Yrotation
                  JOINT RightHand
                  {
                    OFFSET 0 15.8037 0
                    CHANNELS 3 Zrotation Xrotation Yrotation
                    End Site
                    {
                      OFFSET 0 0 0
                    }
                  }
                }
              }
            }
          }
        }
        JOINT LeftShoulder
        {
          OFFSET 4.1327 10.5992 -0.575451
          CHANNELS 3 Zrotation Xrotation Yrotation
          JOINT LeftArm
          {
            OFFSET 0 13.9018 0
            CHANNELS 3 Zrotation Xrotation Yrotation
            JOINT LeftArmRoll
            {
              OFFSET 0 7.01788 0
              CHANNELS 3 Zrotation Xrotation Yrotation
              JOINT LeftForeArm
              {
                OFFSET 0 20.4406 0
                CHANNELS 3 Zrotation Xrotation Yrotation
                JOINT LeftForeArmRoll
                {
                  OFFSET 0 7.87516 0
                  CHANNELS 3 Zrotation Xrotation Yrotation
                  JOINT LeftHand
                  {
                    OFFSET 0 15.8037 0
                    CHANNELS 3 Zrotation Xrotation Yrotation
                    End Site
                    {
                      OFFSET 0 0 0
                    }
                  }
                }
              }
            }
          }
        }
      }
    }
  }
  JOINT RightUpLeg
  {
    OFFSET -7.06048 -1.2947 -1.0861
    CHANNELS 3 Zrotation Xrotation Yrotation
    JOINT RightUpLegRoll
    {
      OFFSET 0 18.5308 0
      CHANNELS 3 Zrotation Xrotation Yrotation
      JOINT RightLeg
      {
        OFFSET 0 -22.9476 0
        CHANNELS 3 Zrotation Xrotation Yrotation
        JOINT RightLegRoll
        {
          OFFSET 0 23.0226 0
          CHANNELS 3 Zrotation Xrotation Yrotation
          JOINT RightFoot
          {
            OFFSET 0 19.1625 0
            CHANNELS 3 Zrotation Xrotation Yrotation
            JOINT RightToeBase
            {
              OFFSET 0 16.0188 0
              CHANNELS 3 Zrotation Xrotation Yrotation
              End Site
              {
                OFFSET 0.00678979 7.75782 -0.894206
              }
            }
          }
        }
      }
    }
  }
  JOINT LeftUpLeg
  {
    OFFSET 7.06048 -1.2947 -1.0861
    CHANNELS 3 Zrotation Xrotation Yrotation
    JOINT LeftUpLegRoll
    {
      OFFSET 0 18.5309 0
      CHANNELS 3 Zrotation Xrotation Yrotation
      JOINT LeftLeg
      {
        OFFSET 0 22.9475 0
        CHANNELS 3 Zrotation Xrotation Yrotation
        JOINT LeftLegRoll
        {
          OFFSET 0 23.2355 0
          CHANNELS 3 Zrotation Xrotation Yrotation
          JOINT LeftFoot
          {
            OFFSET 0 18.9496 0
            CHANNELS 3 Zrotation Xrotation Yrotation
            JOINT LeftToeBase
            {
              OFFSET 0 16.0188 0
              CHANNELS 3 Zrotation Xrotation Yrotation
              End Site
              {
                OFFSET -0.0304289 7.75782 -0.894206
              }
            }
          }
        }
      }
    }
  }
}
MOTION
Frames: 5
Frame Time: 0.00208333
50.1206 96.8546 13.928 -0.100698 -7.36621 -1.12105 0.0653034 0.137694 -0.328916 0.138402 4.26693 -0.666849 0.146612 5.91195 -0.669997 -7.67981 9.76863 4.55878 5.50904 4.09113 3.12149 61.9533 -2.94049 -2.09985 117.102 27.8963 -40.7097 -6.50829e-006 -4.64295e-006 -1.00639e-006 178.314 83.4565 173.218 -7.72388e-006 -4.67435e-006 -2.99999 8.03023 -4.95122 0.697582 -62.8358 -4.07463 2.82312 -110.195 22.356 36.7961 2.25811e-006 1.00577e-006 -5.51148e-006 177.186 77.0812 -165.411 6.3874e-006 1.56702e-005 3 -8.03009 -4.95124 -0.697626 173.092 -6.75498 5.12356 180 7.01472e-015 178.634 179.196 5.20038 179.607 -5.37675e-007 -3.05192e-006 0.0447709 -18.6026 67.5619 19.1847 8.12709 25.2332 -3.48373 -172.673 -5.61699 -3.23423 4.5067e-006 -1.99009e-005 -1.28672 -1.97777 -7.13767 0.0449306 5.2306e-007 -8.29357e-006 -0.119322 19.3592 68.6015 -20.0409 -8.12595 25.2332 3.48324 
50.1133 96.8537 13.9278 -0.091141 -7.35069 -1.12069 0.0625798 0.133936 -0.330502 0.132733 4.26021 -0.669607 0.14097 5.90523 -0.672658 -7.64189 9.80345 4.54159 5.47568 4.11455 3.10797 61.9777 -2.95347 -2.10944 116.962 27.8628 -40.6038 -6.50829e-006 -4.64295e-006 -1.00639e-006 179.011 83.245 172.414 -7.72388e-006 -4.67435e-006 -2.99999 8.03023 -4.95122 0.697582 -62.8178 -4.0632 2.81524 -110.179 22.3586 36.518 2.25811e-006 1.00577e-006 -5.51148e-006 177.193 76.9971 -165.437 6.3874e-006 1.56702e-005 3 -8.03009 -4.95124 -0.697626 173.073 -6.73288 5.13446 180 7.01472e-015 178.634 179.187 5.20685 179.608 -5.37675e-007 -3.05192e-006 0.0447709 -18.6042 67.5639 19.1864 8.12709 25.2332 -3.48373 -172.691 -5.59667 -3.21784 4.5067e-006 -1.99009e-005 -1.28672 -1.97094 -7.14341 0.0455891 5.2306e-007 -8.29357e-006 -0.119314 19.3609 68.6034 -20.0428 -8.12595 25.2332 3.48324 
50.1144 96.8546 13.9321 -0.081099 -7.33481 -1.11972 0.0597397 0.130089 -0.332139 0.126842 4.25335 -0.672435 0.135106 5.89837 -0.675387 -7.60286 9.83898 4.52443 5.44073 4.13646 3.09465 62.0029 -2.9662 -2.11895 116.824 27.8287 -40.4969 -6.50829e-006 -4.64295e-006 -1.00639e-006 179.654 83.0329 171.665 -7.72388e-006 -4.67435e-006 -2.99999 8.03023 -4.95122 0.697582 -62.7992 -4.05172 2.8073 -110.164 22.3585 36.2393 2.25811e-006 1.00577e-006 -5.51148e-006 177.199 76.9137 -165.461 6.3874e-006 1.56702e-005 3 -8.03009 -4.95124 -0.697626 173.053 -6.71014 5.14581 180 7.01471e-015 178.634 179.179 5.21381 179.609 -5.37675e-007 -3.05192e-006 0.0447709 -18.6059 67.5659 19.1883 8.12709 25.2332 -3.48373 -172.711 -5.57558 -3.20075 4.5067e-006 -1.99009e-005 -1.28673 -1.96378 -7.14955 0.0462755 5.2306e-007 -8.29357e-006 -0.119301 19.3629 68.6056 -20.0448 -8.12595 25.2332 3.48324 
50.1298 96.8546 13.9192 -0.0707181 -7.31868 -1.11833 0.0568181 0.12618 -0.333811 0.120795 4.24638 -0.675313 0.129087 5.89141 -0.678163 -7.56305 9.87499 4.50729 5.40467 4.15732 3.08149 62.0286 -2.97875 -2.12841 116.685 27.7941 -40.3894 -6.50829e-006 -4.64295e-006 -1.00639e-006 -179.75 82.8202 170.962 -7.72388e-006 -4.67435e-006 -2.99999 8.03023 -4.95122 0.697582 -62.7804 -4.0402 2.79931 -110.151 22.3565 35.9602 2.25811e-006 1.00577e-006 -5.51148e-006 177.204 76.8307 -165.486 6.3874e-006 1.56702e-005 3 -8.03009 -4.95124 -0.697626 173.033 -6.68697 5.15747 180 7.01471e-015 178.634 179.17 5.22118 179.61 -5.37675e-007 -3.05192e-006 0.0447709 -18.6077 67.5681 19.1902 8.12709 25.2332 -3.48373 -172.73 -5.55394 -3.18319 4.5067e-006 -1.99009e-005 -1.28673 -1.95639 -7.15596 0.0469815 5.2306e-007 -8.29357e-006 -0.119287 19.3649 68.6079 -20.0471 -8.12595 25.2332 3.48324 
50.1185 96.8543 13.923 -0.0601441 -7.30242 -1.1167 0.0538498 0.122236 -0.335505 0.114659 4.23936 -0.67822 0.122979 5.88438 -0.680966 -7.52278 9.91128 4.49016 5.36798 4.17757 3.06841 62.0545 -2.9912 -2.13783 116.546 27.7591 -40.2815 -6.50829e-006 -4.64295e-006 -1.00639e-006 -179.197 82.6068 170.301 -7.72388e-006 -4.67435e-006 -2.99999 8.03023 -4.95122 0.697582 -62.7613 -4.02866 2.7913 -110.138 22.3528 35.6808 2.25811e-006 1.00577e-006 -5.51148e-006 177.209 76.7481 -165.509 6.3874e-006 1.56702e-005 3 -8.03009 -4.95124 -0.697626 173.012 -6.66354 5.1693 180 7.01471e-015 178.633 179.161 5.22873 179.611 -5.37675e-007 -3.05192e-006 0.0447709 -18.6095 67.5704 19.1922 8.12709 25.2332 -3.48373 -172.75 -5.532 -3.16535 4.5067e-006 -1.99009e-005 -1.28673 -1.94886 -7.16252 0.0476985 5.2306e-007 -8.29357e-006 -0.11927 19.3671 68.6103 -20.0493 -8.12595 25.2332 3.48324 
